<svg xmlns="http://www.w3.org/2000/svg" width="1em" height="0.72em" viewBox="0 8 36 20"><path fill="#1f429b" d="M13 5H4a4 4 0 0 0-4 4v9h13zm-4.663 9.292l-1.882-1.367l-1.882 1.367l.719-2.212l-1.882-1.368h2.326L6.455 8.5l.719 2.212H9.5L7.618 12.08z"/><path fill="#eee" d="M32 5H13v13h23V9a4 4 0 0 0-4-4"/><path fill="#d42d27" d="M0 18v9a4 4 0 0 0 4 4h28a4 4 0 0 0 4-4v-9z"/><path fill="#fff" d="M7.174 10.712L6.455 8.5l-.719 2.212H3.41l1.882 1.368l-.719 2.212l1.882-1.367l1.882 1.367l-.719-2.212L9.5 10.712z"/></svg>