<svg xmlns="http://www.w3.org/2000/svg" width="1em" height="0.72em" viewBox="0 8 36 20"><path fill="#0099b5" d="M0 9v4h36V9a4 4 0 0 0-4-4H4a4 4 0 0 0-4 4"/><path fill="#1eb53a" d="M36 27v-4H0v4a4 4 0 0 0 4 4h28a4 4 0 0 0 4-4"/><path fill="#ce1126" d="M0 13h36v1.5H0zm0 8.5h36V23H0z"/><path fill="#eee" d="M0 18v3.5h36v-7H0z"/><path fill="#fff" d="M4.2 9.16a3.12 3.12 0 0 1 2.6-3.076a3.12 3.12 0 1 0 0 6.152A3.12 3.12 0 0 1 4.2 9.16m4.683 2.303l-.14-.431l-.14.431h-.454l.367.267l-.14.431l.367-.267l.366.267l-.14-.431l.367-.267zm2.702 0l-.14-.431l-.14.431h-.453l.367.267l-.14.431l.366-.267l.367.267l-.14-.431l.367-.267zm-.14-2.927l-.14.431h-.453l.367.267l-.14.431l.366-.267l.367.267l-.14-.431l.367-.267h-.454zm2.843 2.927l-.14-.431l-.14.431h-.453l.366.267l-.14.431l.367-.267l.367.267l-.14-.431l.366-.267zm-.14-2.927l-.14.431h-.453l.366.267l-.14.431l.367-.267l.367.267l-.14-.431l.366-.267h-.453zm0-2.496l-.14.431h-.453l.366.267l-.14.431l.367-.267l.367.267l-.14-.431l.366-.267h-.453zm2.843 5.423l-.14-.431l-.14.431h-.454l.367.267l-.14.431l.367-.267l.366.267l-.14-.431l.367-.267zm-.14-2.927l-.14.431h-.454l.367.267l-.14.431l.367-.267l.366.267l-.14-.431l.367-.267h-.453zm0-2.496l-.14.431h-.454l.367.267l-.14.431l.367-.267l.366.267l-.14-.431l.367-.267h-.453zm2.842 5.423l-.14-.431l-.14.431h-.453l.367.267l-.14.431l.366-.267l.367.267l-.14-.431l.367-.267zm-.14-2.927l-.14.431h-.453l.367.267l-.14.431l.366-.267l.367.267l-.14-.431l.367-.267h-.454zm0-2.496l-.14.431h-.453l.367.267l-.14.431l.366-.267l.367.267l-.14-.431l.367-.267h-.454z"/></svg>