<svg xmlns="http://www.w3.org/2000/svg" width="1em" height="0.72em" viewBox="0 8 36 20"><path fill="#fff" d="M11.077 21L18 31l6.923-10z"/><path fill="#141414" d="m10.279 15l-.105-.022l3.988-.827l-3.392-2.417l3.977.889l-2.28-3.64l3.36 2.47l-.821-4.308l2.232 3.675L18 6.5l.763 4.321l2.232-3.675l-.821 4.308l3.36-2.47l-2.28 3.64l3.977-.889l-3.392 2.417l3.988.827l-.106.021h3.356l5.956-8.603A3.988 3.988 0 0 0 32 5H4A3.988 3.988 0 0 0 .967 6.397L6.923 15z"/><path fill="#fcd116" d="m25.826 14.978l-3.988-.827l3.392-2.417l-3.976.889l2.28-3.64l-3.36 2.47l.821-4.308l-2.232 3.676L18 6.5l-.763 4.321l-2.232-3.676l.821 4.308l-3.36-2.47l2.28 3.64l-3.976-.889l3.392 2.417l-3.988.827l.105.022h15.442z"/><path fill="#0072c6" d="M10.279 15H6.923l4.154 6h13.846l4.154-6h-3.356z"/><path fill="#ce1126" d="m29.077 15l-4.154 6L18 31h14a4 4 0 0 0 4-4V9c0-.995-.366-1.903-.967-2.603zM6.923 15L.967 6.397A3.982 3.982 0 0 0 0 9v18a4 4 0 0 0 4 4h14l-6.923-10z"/></svg>