<svg xmlns="http://www.w3.org/2000/svg" width="1em" height="0.72em" viewBox="0 8 36 20"><path fill="#3a75c4" d="M0 18v9a4 4 0 0 0 4 4h28a4 4 0 0 0 4-4v-9z"/><path fill="#ffc61e" d="M36 18V9a4 4 0 0 0-4-4H4a4 4 0 0 0-4 4v9z"/><path fill="#ce1126" d="M0 18h36v6.5H0z"/><path fill="#eee" d="M0 11.5h36V18H0z"/><path fill="#3d8e33" d="M1.351 6.004A3.991 3.991 0 0 0 0 9v18c0 1.193.522 2.264 1.351 2.997L17.5 18z"/><g fill="#fff"><path d="M3.926 18a5.52 5.52 0 0 1 4.295-5.38a5.514 5.514 0 0 0-1.227-.142a5.522 5.522 0 1 0 0 11.044c.422 0 .832-.052 1.227-.142A5.52 5.52 0 0 1 3.926 18"/><path d="m7.62 14.875l.601-.437l.601.437l-.23-.706l.601-.437H8.45l-.229-.707l-.23.707h-.743l.601.437zm0 2.635l.601-.437l.601.437l-.23-.707l.601-.436H8.45l-.229-.707l-.23.707h-.743l.601.436zm0 2.635l.601-.437l.601.437l-.23-.707l.601-.437H8.45l-.229-.706l-.23.706h-.743l.601.437zm.601 2.198l.601.436l-.23-.706l.601-.437H8.45l-.229-.706l-.23.706h-.743l.601.437l-.229.706z"/></g></svg>