<svg xmlns="http://www.w3.org/2000/svg" width="1em" height="0.72em" viewBox="0 8 36 20"><path fill="#002a8f" d="M32 5H4a4 4 0 0 0-4 4v18a4 4 0 0 0 4 4h28a4 4 0 0 0 4-4V9a4 4 0 0 0-4-4"/><path fill="#eee" d="M13.846 15H36v-5H6.923zM6.923 26H36v-5H13.846z"/><path fill="#cf142b" d="m13.846 15l-6.923-5l-5.541-4.002A3.973 3.973 0 0 0 0 9v18c0 1.203.542 2.269 1.382 3.002L6.923 26l6.923-5L18 18z"/><path fill="#fff" d="M7.495 18.602L9.5 17.149H7.022l-.769-2.362l-.772 2.362H3l2.006 1.454l-.771 2.36l2.015-1.459l2.015 1.459z"/></svg>