<svg xmlns="http://www.w3.org/2000/svg" width="1em" height="0.72em" viewBox="0 8 36 20"><path fill="#002b7f" d="M36 27a4 4 0 0 1-4 4H4a4 4 0 0 1-4-4V9a4 4 0 0 1 4-4h28a4 4 0 0 1 4 4z"/><path fill="#ffc61e" d="M0 17h36v2H0z"/><path fill="#fff" d="m9.979 19.479l.492 1.965l1.409-1.456l-.556 1.949l1.949-.557l-1.457 1.409l1.966.492l-1.966.492l1.457 1.41l-1.949-.557l.556 1.949l-1.409-1.457l-.492 1.966l-.492-1.966l-1.409 1.457l.556-1.949l-1.948.557l1.456-1.41l-1.966-.492l1.966-.492l-1.456-1.409l1.948.557l-.556-1.949l1.409 1.456z"/></svg>