<svg xmlns="http://www.w3.org/2000/svg" width="1em" height="0.72em" viewBox="0 8 36 20"><path fill="#377e3f" d="M0 27a4 4 0 0 0 4 4h28a4 4 0 0 0 4-4v-1H0z"/><path fill="#eee" d="M0 23h36v3H0z"/><path fill="#377e3f" d="M32 5H4a4 4 0 0 0-4 4v1h36V9a4 4 0 0 0-4-4"/><path fill="#eee" d="M0 10h36v3H0z"/><path fill="#b40a2d" d="M0 23h36V13H0zm16.833-6.11L18 13.297l1.167 3.593h3.778l-3.057 2.221l1.167 3.593L18 20.483l-3.056 2.221l1.167-3.593l-3.057-2.221z"/><path fill="#ecc81d" d="M14.944 22.703L18 20.483l3.056 2.22l-1.167-3.593l3.056-2.22h-3.778L18 13.297l-1.167 3.593h-3.778l3.056 2.22z"/></svg>