<svg xmlns="http://www.w3.org/2000/svg" width="1em" height="0.72em" viewBox="0 8 36 20"><path fill="#eee" d="M0 13h36v10H0z"/><path fill="#ce1126" d="M32 5H4a4 4 0 0 0-4 4v4h36V9a4 4 0 0 0-4-4"/><path fill="#141414" d="M32 31H4a4 4 0 0 1-4-4v-4h36v4a4 4 0 0 1-4 4"/><path fill="#007a3d" d="m9.177 18.332l-.633 1.947l1.656-1.203l1.656 1.203l-.633-1.947l1.656-1.202h-2.047l-.632-1.947l-.632 1.947H7.521zm15.6 0l-.633 1.947l1.656-1.203l1.656 1.203l-.633-1.947l1.656-1.202h-2.047l-.632-1.947l-.632 1.947h-2.047z"/></svg>