<svg xmlns="http://www.w3.org/2000/svg" width="1em" height="0.72em" viewBox="0 8 36 20"><path fill="#141414" d="M32 5H4a4 4 0 0 0-4 4v4.5h36V9a4 4 0 0 0-4-4"/><path fill="#007a3d" d="M0 27a4 4 0 0 0 4 4h28a4 4 0 0 0 4-4v-4.5H0z"/><path fill="#eee" d="M0 13.5h36v9H0z"/><path fill="#c4111b" d="M1.129 6.223A3.984 3.984 0 0 0 0 9v18c0 1.08.433 2.057 1.129 2.777L12 18z"/><g fill="#c4111b"><path d="M17.894 18.033a3.467 3.467 0 0 1 2.817-3.405a3.467 3.467 0 1 0-.001 6.81a3.466 3.466 0 0 1-2.816-3.405"/><path d="m19.13 20.132l1.478-1.057l1.467 1.073l-.548-1.732L23 17.353l-1.817-.014l-.556-1.73l-.575 1.724l-1.817-.006l1.462 1.079z"/></g></svg>